# xmcd CD database file
#
# Track frame offsets:
#	150
#	19352
#	34597
#	50200
#	69917
#	84354
#	102597
#	118570
#	131297
#	144572
#	158597
#	170162
#	182725
#	195780
#	207642
#	219195
#	235860
#	247022
#	262110
#	274635
#	290855
#
# Disc length: 4073 seconds
#
# Revision: 0
# Processed by: cddbd v1.5.2PL0 Copyright (c) Steve Scherf et al.
# Submitted via: CDex 1.70beta2
#
DISCID=3a0fe715
DTITLE=Jones Classic Country - Jones Classic Country CCC-614
DYEAR=0000
DGENRE=Country
TTITLE0=Earl Thomas Conley/Somewhere Between Right And Wrong
TTITLE1=Earl Thomas Conley/Your Love's On The Line
TTITLE2=Earl Thomas Conley/Nobody Falls Like A Fool
TTITLE3=Earl Thomas Conley/That Was A Close One
TTITLE4=Earl Thomas Conley/Right From The Start
TTITLE5=Earl Thomas Conley/What She Is
TTITLE6=Lacy J Dalton/takin' it easy
TTITLE7=dave and sugar/door is always open
TTITLE8=johnny duncan/she can put her shoes under my bed (anytime)
TTITLE9=barbara fairchild/teddy bear song
TTITLE10=Donna Fargo/Happiest Girl In The Whole USA
TTITLE11=donna fargo/funny face
TTITLE12=freddy fender/you'll lose a good thing
TTITLE13=freddy fender/before the next teardrop falls
TTITLE14=Janie Fricke/down to my last broken heart
TTITLE15=janie fricke/it ain't easy bein' easy
TTITLE16=janie fricke/don't worry 'bout me baby
TTITLE17=janie fricke/let's stop talkin' about it
TTITLE18=larry gatlin and the gatlin brothers/statues without hearts
TTITLE19=larry gatlin and the gatlin brothers/love is just a game
TTITLE20=larry gatlin and the gatlin brothers/i just wish you were someone i love
EXTD=YEAR: 0000
EXTT0=
EXTT1=
EXTT2=
EXTT3=
EXTT4=
EXTT5=
EXTT6=
EXTT7=
EXTT8=
EXTT9=
EXTT10=
EXTT11=
EXTT12=
EXTT13=
EXTT14=
EXTT15=
EXTT16=
EXTT17=
EXTT18=
EXTT19=
EXTT20=
PLAYORDER=
